<svg width="119" height="109" viewBox="0 0 119 109" fill="none" xmlns="http://www.w3.org/2000/svg">
<g clip-path="url(#clip0_1_156)">
<path d="M20.3477 0H43.4987C45.1118 0 46.3281 1.45813 46.0389 3.04612L32.9337 75.2812C32.6444 76.8692 33.8645 78.3273 35.4739 78.3273H71.8859C76.2024 78.3273 79.4064 82.327 78.4644 86.5418L75.0676 101.761C74.3779 104.845 71.6448 107.037 68.4891 107.037H2.5848C0.979094 107.037 -0.237235 105.59 0.040889 104.01L17.8037 2.14082C18.0188 0.905303 19.0942 0 20.3477 0Z" fill="white"/>
<path d="M118.248 95.9492C120.893 86.6807 116.352 77.2566 108.105 74.8998C99.8574 72.543 91.0267 78.146 88.3809 87.4144C85.7351 96.6829 90.2761 106.107 98.5236 108.464C106.771 110.821 115.602 105.218 118.248 95.9492Z" fill="white"/>
<path d="M80.3074 -2.00756e-05C73.1466 -2.00756e-05 65.2739 0.56765 61.3579 0.894152C59.8745 1.01659 58.673 2.12225 58.4098 3.58409L48.0153 60.9076C47.3849 64.3804 49.9214 67.6157 53.4406 67.8458C68.4593 68.829 104.608 67.9274 112.069 37.6294C121.54 -0.83483 90.3347 -2.00756e-05 80.3074 -2.00756e-05ZM92.8601 35.6815C90.1085 46.5489 79.0725 49.0125 72.8796 49.5245C70.7028 49.7063 68.9488 47.7881 69.353 45.6399L73.955 21.0817C74.248 19.5271 75.6052 18.3992 77.185 18.3992H80.7339C87.0083 18.3992 96.7464 20.3507 92.8601 35.6815Z" fill="white"/>
</g>
<defs>
<clipPath id="clip0_1_156">
<rect width="119" height="109" fill="white"/>
</clipPath>
</defs>
</svg>
